<svg width="654" height="91" viewBox="0 0 654 91" fill="none" xmlns="http://www.w3.org/2000/svg">
<g clip-path="url(#clip0_3446_4471)">
<rect width="654" height="91" rx="20" fill="white"/>
<path d="M29.66 52V38.92H33.16C34.4933 38.92 35.6333 39.16 36.58 39.64C37.5267 40.12 38.2533 40.84 38.76 41.8C39.2667 42.76 39.52 43.96 39.52 45.4C39.52 46.84 39.2667 48.0533 38.76 49.04C38.2667 50.0133 37.5533 50.7533 36.62 51.26C35.6867 51.7533 34.5733 52 33.28 52H29.66ZM31.98 50.12H33C33.88 50.12 34.6267 49.9533 35.24 49.62C35.8667 49.2733 36.34 48.7533 36.66 48.06C36.98 47.3667 37.14 46.48 37.14 45.4C37.14 44.3333 36.98 43.46 36.66 42.78C36.34 42.1 35.8667 41.6 35.24 41.28C34.6267 40.96 33.88 40.8 33 40.8H31.98V50.12ZM45.98 52.24C45.1667 52.24 44.4067 52.04 43.7 51.64C42.9933 51.2267 42.42 50.64 41.98 49.88C41.54 49.1067 41.32 48.18 41.32 47.1C41.32 46.0067 41.54 45.08 41.98 44.32C42.42 43.5467 42.9933 42.96 43.7 42.56C44.4067 42.1467 45.1667 41.94 45.98 41.94C46.8067 41.94 47.5733 42.1467 48.28 42.56C48.9867 42.96 49.56 43.5467 50 44.32C50.44 45.08 50.66 46.0067 50.66 47.1C50.66 48.18 50.44 49.1067 50 49.88C49.56 50.64 48.9867 51.2267 48.28 51.64C47.5733 52.04 46.8067 52.24 45.98 52.24ZM45.98 50.36C46.46 50.36 46.8733 50.2267 47.22 49.96C47.5667 49.6933 47.8333 49.3133 48.02 48.82C48.2067 48.3267 48.3 47.7533 48.3 47.1C48.3 46.4467 48.2067 45.8733 48.02 45.38C47.8333 44.8867 47.5667 44.5067 47.22 44.24C46.8733 43.96 46.46 43.82 45.98 43.82C45.5 43.82 45.0867 43.96 44.74 44.24C44.4067 44.5067 44.1467 44.8867 43.96 45.38C43.7733 45.8733 43.68 46.4467 43.68 47.1C43.68 47.7533 43.7733 48.3267 43.96 48.82C44.1467 49.3133 44.4067 49.6933 44.74 49.96C45.0867 50.2267 45.5 50.36 45.98 50.36ZM54.4394 52L51.8394 42.18H54.1994L55.3594 47.28C55.466 47.72 55.5594 48.1733 55.6394 48.64C55.7194 49.0933 55.7927 49.6133 55.8594 50.2H55.9394C56.0327 49.6133 56.1194 49.0933 56.1994 48.64C56.2927 48.1733 56.386 47.72 56.4794 47.28L57.6794 42.18H60.0794L61.3194 47.28C61.426 47.72 61.526 48.1733 61.6194 48.64C61.7127 49.0933 61.806 49.6133 61.8994 50.2H61.9794C62.0727 49.6133 62.1527 49.0933 62.2194 48.64C62.2994 48.1733 62.386 47.72 62.4794 47.28L63.6394 42.18H65.8394L63.3394 52H60.3994L59.3994 47.44C59.306 47 59.2127 46.56 59.1194 46.12C59.0394 45.6667 58.9594 45.12 58.8794 44.48H58.7994C58.7194 45.12 58.6394 45.6667 58.5594 46.12C58.4794 46.56 58.386 47 58.2794 47.44L57.2794 52H54.4394ZM67.7803 52V42.18H69.6803L69.8403 43.5H69.9203C70.3603 43.0733 70.8403 42.7067 71.3603 42.4C71.8803 42.0933 72.4736 41.94 73.1403 41.94C74.1936 41.94 74.9603 42.28 75.4403 42.96C75.9203 43.64 76.1603 44.6 76.1603 45.84V52H73.8603V46.14C73.8603 45.3267 73.7403 44.7533 73.5003 44.42C73.2603 44.0867 72.867 43.92 72.3203 43.92C71.8936 43.92 71.5136 44.0267 71.1803 44.24C70.8603 44.44 70.4936 44.74 70.0803 45.14V52H67.7803ZM79.1717 52V38.92H81.4917V50.04H86.9317V52H79.1717ZM92.7769 52.24C91.9635 52.24 91.2035 52.04 90.4969 51.64C89.7902 51.2267 89.2169 50.64 88.7769 49.88C88.3369 49.1067 88.1169 48.18 88.1169 47.1C88.1169 46.0067 88.3369 45.08 88.7769 44.32C89.2169 43.5467 89.7902 42.96 90.4969 42.56C91.2035 42.1467 91.9635 41.94 92.7769 41.94C93.6035 41.94 94.3702 42.1467 95.0769 42.56C95.7835 42.96 96.3569 43.5467 96.7969 44.32C97.2369 45.08 97.4569 46.0067 97.4569 47.1C97.4569 48.18 97.2369 49.1067 96.7969 49.88C96.3569 50.64 95.7835 51.2267 95.0769 51.64C94.3702 52.04 93.6035 52.24 92.7769 52.24ZM92.7769 50.36C93.2569 50.36 93.6702 50.2267 94.0169 49.96C94.3635 49.6933 94.6302 49.3133 94.8169 48.82C95.0035 48.3267 95.0969 47.7533 95.0969 47.1C95.0969 46.4467 95.0035 45.8733 94.8169 45.38C94.6302 44.8867 94.3635 44.5067 94.0169 44.24C93.6702 43.96 93.2569 43.82 92.7769 43.82C92.2969 43.82 91.8835 43.96 91.5369 44.24C91.2035 44.5067 90.9435 44.8867 90.7569 45.38C90.5702 45.8733 90.4769 46.4467 90.4769 47.1C90.4769 47.7533 90.5702 48.3267 90.7569 48.82C90.9435 49.3133 91.2035 49.6933 91.5369 49.96C91.8835 50.2267 92.2969 50.36 92.7769 50.36ZM101.879 52.24C101.306 52.24 100.799 52.12 100.359 51.88C99.9191 51.64 99.5724 51.3067 99.3191 50.88C99.0791 50.44 98.9591 49.9333 98.9591 49.36C98.9591 48.2533 99.4191 47.42 100.339 46.86C101.272 46.2867 102.746 45.8933 104.759 45.68C104.746 45.3467 104.679 45.04 104.559 44.76C104.452 44.48 104.266 44.26 103.999 44.1C103.746 43.9267 103.399 43.84 102.959 43.84C102.479 43.84 102.006 43.9267 101.539 44.1C101.086 44.2733 100.639 44.4933 100.199 44.76L99.3591 43.2C99.7191 42.9733 100.112 42.7667 100.539 42.58C100.966 42.38 101.419 42.2267 101.899 42.12C102.379 42 102.879 41.94 103.399 41.94C104.212 41.94 104.886 42.1067 105.419 42.44C105.966 42.76 106.372 43.24 106.639 43.88C106.919 44.5067 107.059 45.28 107.059 46.2V52H105.159L104.999 50.92H104.919C104.466 51.2933 103.992 51.6067 103.499 51.86C103.006 52.1133 102.466 52.24 101.879 52.24ZM102.599 50.36C102.999 50.36 103.366 50.28 103.699 50.12C104.046 49.9467 104.399 49.6933 104.759 49.36V47.28C103.866 47.3867 103.159 47.5267 102.639 47.7C102.119 47.8733 101.746 48.0867 101.519 48.34C101.306 48.58 101.199 48.8667 101.199 49.2C101.199 49.6133 101.332 49.9133 101.599 50.1C101.866 50.2733 102.199 50.36 102.599 50.36ZM113.252 52.24C112.025 52.24 111.045 51.7867 110.312 50.88C109.578 49.9733 109.212 48.7133 109.212 47.1C109.212 46.0333 109.405 45.1133 109.792 44.34C110.192 43.5667 110.705 42.9733 111.332 42.56C111.972 42.1467 112.652 41.94 113.372 41.94C113.932 41.94 114.405 42.0333 114.792 42.22C115.192 42.4067 115.578 42.6733 115.952 43.02L115.872 41.44V37.88H118.172V52H116.272L116.112 50.94H116.032C115.672 51.3 115.252 51.6067 114.772 51.86C114.292 52.1133 113.785 52.24 113.252 52.24ZM113.812 50.34C114.198 50.34 114.558 50.2533 114.892 50.08C115.225 49.8933 115.552 49.6133 115.872 49.24V44.66C115.538 44.3533 115.205 44.14 114.872 44.02C114.538 43.9 114.205 43.84 113.872 43.84C113.445 43.84 113.058 43.9667 112.712 44.22C112.378 44.4733 112.105 44.84 111.892 45.32C111.692 45.8 111.592 46.3867 111.592 47.08C111.592 48.1333 111.785 48.94 112.172 49.5C112.558 50.06 113.105 50.34 113.812 50.34ZM123.605 52L127.865 38.92H130.585L134.845 52H132.405L130.405 45.04C130.191 44.3467 129.985 43.6333 129.785 42.9C129.598 42.1667 129.411 41.44 129.225 40.72H129.145C128.971 41.4533 128.785 42.1867 128.585 42.92C128.398 43.64 128.198 44.3467 127.985 45.04L125.965 52H123.605ZM126.125 48.46V46.64H132.285V48.46H126.125ZM136.457 52V38.92H138.777V50.04H144.217V52H136.457ZM144.757 52L149.017 38.92H151.737L155.997 52H153.557L151.557 45.04C151.344 44.3467 151.137 43.6333 150.937 42.9C150.75 42.1667 150.564 41.44 150.377 40.72H150.297C150.124 41.4533 149.937 42.1867 149.737 42.92C149.55 43.64 149.35 44.3467 149.137 45.04L147.117 52H144.757ZM147.277 48.46V46.64H153.437V48.46H147.277ZM185.637 52V38.92H193.537V40.88H187.957V44.58H192.717V46.54H187.957V52H185.637ZM195.241 52V42.18H197.141L197.301 43.92H197.381C197.728 43.28 198.141 42.7933 198.621 42.46C199.115 42.1133 199.628 41.94 200.161 41.94C200.415 41.94 200.628 41.9533 200.801 41.98C200.975 42.0067 201.135 42.06 201.281 42.14L200.821 44.1C200.661 44.06 200.515 44.0333 200.381 44.02C200.248 43.9933 200.075 43.98 199.861 43.98C199.475 43.98 199.068 44.1333 198.641 44.44C198.215 44.7333 197.848 45.2533 197.541 46V52H195.241ZM206.527 52.24C205.714 52.24 204.954 52.04 204.247 51.64C203.54 51.2267 202.967 50.64 202.527 49.88C202.087 49.1067 201.867 48.18 201.867 47.1C201.867 46.0067 202.087 45.08 202.527 44.32C202.967 43.5467 203.54 42.96 204.247 42.56C204.954 42.1467 205.714 41.94 206.527 41.94C207.354 41.94 208.12 42.1467 208.827 42.56C209.534 42.96 210.107 43.5467 210.547 44.32C210.987 45.08 211.207 46.0067 211.207 47.1C211.207 48.18 210.987 49.1067 210.547 49.88C210.107 50.64 209.534 51.2267 208.827 51.64C208.12 52.04 207.354 52.24 206.527 52.24ZM206.527 50.36C207.007 50.36 207.42 50.2267 207.767 49.96C208.114 49.6933 208.38 49.3133 208.567 48.82C208.754 48.3267 208.847 47.7533 208.847 47.1C208.847 46.4467 208.754 45.8733 208.567 45.38C208.38 44.8867 208.114 44.5067 207.767 44.24C207.42 43.96 207.007 43.82 206.527 43.82C206.047 43.82 205.634 43.96 205.287 44.24C204.954 44.5067 204.694 44.8867 204.507 45.38C204.32 45.8733 204.227 46.4467 204.227 47.1C204.227 47.7533 204.32 48.3267 204.507 48.82C204.694 49.3133 204.954 49.6933 205.287 49.96C205.634 50.2267 206.047 50.36 206.527 50.36ZM213.483 52V42.18H215.383L215.543 43.52H215.623C216.037 43.08 216.483 42.7067 216.963 42.4C217.457 42.0933 218.01 41.94 218.623 41.94C219.357 41.94 219.937 42.0933 220.363 42.4C220.79 42.7067 221.117 43.14 221.343 43.7C221.81 43.1933 222.297 42.7733 222.803 42.44C223.31 42.1067 223.877 41.94 224.503 41.94C225.543 41.94 226.31 42.28 226.803 42.96C227.297 43.64 227.543 44.6 227.543 45.84V52H225.223V46.14C225.223 45.3267 225.103 44.7533 224.863 44.42C224.623 44.0867 224.243 43.92 223.723 43.92C223.403 43.92 223.077 44.02 222.743 44.22C222.41 44.42 222.05 44.7267 221.663 45.14V52H219.363V46.14C219.363 45.3267 219.237 44.7533 218.983 44.42C218.743 44.0867 218.363 43.92 217.843 43.92C217.23 43.92 216.543 44.3267 215.783 45.14V52H213.483ZM234.543 52V38.92H237.083L241.003 46.12C241.243 46.56 241.469 47.0333 241.683 47.54C241.909 48.0467 242.123 48.56 242.323 49.08H242.403C242.349 48.3733 242.289 47.64 242.223 46.88C242.156 46.1067 242.123 45.36 242.123 44.64V38.92H244.343V52H241.803L237.883 44.8C237.643 44.36 237.403 43.8867 237.163 43.38C236.936 42.8733 236.723 42.36 236.523 41.84H236.443C236.523 42.52 236.596 43.2467 236.663 44.02C236.729 44.78 236.763 45.5333 236.763 46.28V52H234.543ZM251.507 52.24C250.694 52.24 249.934 52.04 249.227 51.64C248.521 51.2267 247.947 50.64 247.507 49.88C247.067 49.1067 246.847 48.18 246.847 47.1C246.847 46.0067 247.067 45.08 247.507 44.32C247.947 43.5467 248.521 42.96 249.227 42.56C249.934 42.1467 250.694 41.94 251.507 41.94C252.334 41.94 253.101 42.1467 253.807 42.56C254.514 42.96 255.087 43.5467 255.527 44.32C255.967 45.08 256.187 46.0067 256.187 47.1C256.187 48.18 255.967 49.1067 255.527 49.88C255.087 50.64 254.514 51.2267 253.807 51.64C253.101 52.04 252.334 52.24 251.507 52.24ZM251.507 50.36C251.987 50.36 252.401 50.2267 252.747 49.96C253.094 49.6933 253.361 49.3133 253.547 48.82C253.734 48.3267 253.827 47.7533 253.827 47.1C253.827 46.4467 253.734 45.8733 253.547 45.38C253.361 44.8867 253.094 44.5067 252.747 44.24C252.401 43.96 251.987 43.82 251.507 43.82C251.027 43.82 250.614 43.96 250.267 44.24C249.934 44.5067 249.674 44.8867 249.487 45.38C249.301 45.8733 249.207 46.4467 249.207 47.1C249.207 47.7533 249.301 48.3267 249.487 48.82C249.674 49.3133 249.934 49.6933 250.267 49.96C250.614 50.2267 251.027 50.36 251.507 50.36ZM259.967 52L257.367 42.18H259.727L260.887 47.28C260.993 47.72 261.087 48.1733 261.167 48.64C261.247 49.0933 261.32 49.6133 261.387 50.2H261.467C261.56 49.6133 261.647 49.0933 261.727 48.64C261.82 48.1733 261.913 47.72 262.007 47.28L263.207 42.18H265.607L266.847 47.28C266.953 47.72 267.053 48.1733 267.147 48.64C267.24 49.0933 267.333 49.6133 267.427 50.2H267.507C267.6 49.6133 267.68 49.0933 267.747 48.64C267.827 48.1733 267.913 47.72 268.007 47.28L269.167 42.18H271.367L268.867 52H265.927L264.927 47.44C264.833 47 264.74 46.56 264.647 46.12C264.567 45.6667 264.487 45.12 264.407 44.48H264.327C264.247 45.12 264.167 45.6667 264.087 46.12C264.007 46.56 263.913 47 263.807 47.44L262.807 52H259.967ZM282.592 52.24C281.458 52.24 280.458 51.9667 279.592 51.42C278.725 50.86 278.045 50.0733 277.552 49.06C277.072 48.0333 276.832 46.8133 276.832 45.4C276.832 43.9867 277.072 42.78 277.552 41.78C278.045 40.78 278.725 40.0133 279.592 39.48C280.458 38.9467 281.458 38.68 282.592 38.68C283.738 38.68 284.745 38.9467 285.612 39.48C286.478 40.0133 287.152 40.78 287.632 41.78C288.125 42.78 288.372 43.9867 288.372 45.4C288.372 46.8133 288.125 48.0333 287.632 49.06C287.152 50.0733 286.478 50.86 285.612 51.42C284.745 51.9667 283.738 52.24 282.592 52.24ZM282.592 50.22C283.285 50.22 283.878 50.0267 284.372 49.64C284.878 49.24 285.272 48.68 285.552 47.96C285.832 47.2267 285.972 46.3733 285.972 45.4C285.972 44.4267 285.832 43.5933 285.552 42.9C285.272 42.1933 284.878 41.6533 284.372 41.28C283.878 40.8933 283.285 40.7 282.592 40.7C281.912 40.7 281.318 40.8933 280.812 41.28C280.305 41.6533 279.912 42.1933 279.632 42.9C279.352 43.5933 279.212 44.4267 279.212 45.4C279.212 46.3733 279.352 47.2267 279.632 47.96C279.912 48.68 280.305 49.24 280.812 49.64C281.318 50.0267 281.912 50.22 282.592 50.22ZM290.988 52V38.92H293.528L297.448 46.12C297.688 46.56 297.915 47.0333 298.128 47.54C298.355 48.0467 298.568 48.56 298.768 49.08H298.848C298.795 48.3733 298.735 47.64 298.668 46.88C298.601 46.1067 298.568 45.36 298.568 44.64V38.92H300.788V52H298.248L294.328 44.8C294.088 44.36 293.848 43.8867 293.608 43.38C293.381 42.8733 293.168 42.36 292.968 41.84H292.888C292.968 42.52 293.041 43.2467 293.108 44.02C293.175 44.78 293.208 45.5333 293.208 46.28V52H290.988Z" fill="black"/>
<path d="M607.177 41.177C606.094 42.261 604.037 41.962 604.037 41.962C604.037 41.962 603.739 39.906 604.823 38.822C605.906 37.739 607.963 38.038 607.963 38.038C607.963 38.038 608.261 40.093 607.177 41.177ZM596 50.06C596 53.341 598.196 57.11 600.419 57.907C601.189 58.183 601.986 57.802 602.648 57.327C603.15 56.967 603.758 56.624 604.25 56.624C604.74 56.624 605.35 56.967 605.851 57.327C606.513 57.802 607.31 58.183 608.081 57.907C609.66 57.341 611.226 55.274 612 52.947C610.5 52.517 609.406 51.161 609.406 49.554C609.406 48.082 610.325 46.82 611.632 46.289C610.79 44.793 609.414 44 607.859 44C607.055 44 606.315 44.324 605.719 44.713C604.765 45.333 603.734 45.333 602.781 44.713C602.184 44.324 601.445 44 600.641 44C598.077 44 596 46.155 596 50.06Z" stroke="black" stroke-width="1.5" stroke-linecap="round" stroke-linejoin="round"/>
<path d="M171.039 36.4395V34.0355H169.039V36.4395L168.887 36.4135L168.612 36.3635C168.284 36.3045 167.914 36.2375 167.548 36.1975C166.522 36.0865 165.393 36.1675 164.054 36.9115C161.417 38.3745 160.039 41.1355 160.039 44.5355C160.039 48.8175 162.758 52.8325 166.226 53.9735C167.267 54.3165 168.013 54.1315 168.633 53.9035C168.73 53.8675 168.821 53.8331 168.905 53.8005C169.321 53.6415 169.6 53.5355 170.039 53.5355C170.479 53.5355 170.758 53.6415 171.174 53.8005L171.445 53.9025C172.065 54.1295 172.81 54.3145 173.85 53.9745C177.33 52.8345 180.039 48.8155 180.039 44.5355C180.039 41.1355 178.659 38.3705 176.024 36.9105C174.684 36.1685 173.556 36.0885 172.531 36.1985C172.164 36.2385 171.794 36.3055 171.466 36.3645L171.039 36.4395ZM167.039 38.0355C167.039 38.0355 168.914 38.6715 170.039 38.6715C171.164 38.6715 173.039 38.0355 173.039 38.0355C173.039 38.0355 172.297 40.0355 170.039 40.0355C167.781 40.0355 167.039 38.0355 167.039 38.0355Z" fill="url(#paint0_linear_3446_4471)"/>
<rect x="158" y="36.9498" width="7" height="3" rx="1.5" transform="rotate(-45 158 36.9498)" fill="black"/>
<rect width="7" height="3" rx="1.5" transform="matrix(-0.707107 -0.707107 -0.707107 0.707107 182.07 36.9498)" fill="black"/>
</g>
<rect x="0.5" y="0.5" width="653" height="90" rx="19.5" stroke="black"/>
<defs>
<linearGradient id="paint0_linear_3446_4471" x1="170.039" y1="34.0355" x2="170.039" y2="54.1627" gradientUnits="userSpaceOnUse">
<stop stop-color="#FF3F3F"/>
<stop offset="1" stop-color="#666666"/>
</linearGradient>
<clipPath id="clip0_3446_4471">
<rect width="654" height="91" rx="20" fill="white"/>
</clipPath>
</defs>
</svg>
