<svg width="26" height="24" viewBox="0 0 26 24" fill="none" xmlns="http://www.w3.org/2000/svg">
<path d="M14 5.404V3H12V5.404L11.848 5.378L11.573 5.328C11.245 5.269 10.875 5.202 10.509 5.162C9.483 5.051 8.354 5.132 7.015 5.876C4.378 7.339 3 10.1 3 13.5C3 17.782 5.719 21.797 9.187 22.938C10.228 23.281 10.974 23.096 11.594 22.868C11.6913 22.832 11.782 22.7977 11.866 22.765C12.282 22.606 12.561 22.5 13 22.5C13.44 22.5 13.719 22.606 14.135 22.765L14.406 22.867C15.026 23.094 15.771 23.279 16.811 22.939C20.291 21.799 23 17.78 23 13.5C23 10.1 21.62 7.335 18.985 5.875C17.645 5.133 16.517 5.053 15.492 5.163C15.125 5.203 14.755 5.27 14.427 5.329L14 5.404ZM10 7C10 7 11.875 7.636 13 7.636C14.125 7.636 16 7 16 7C16 7 15.258 9 13 9C10.742 9 10 7 10 7Z" fill="url(#paint0_linear_3474_4261)"/>
<rect x="0.960938" y="5.91431" width="7" height="3" rx="1.5" transform="rotate(-45 0.960938 5.91431)" fill="black"/>
<rect width="7" height="3" rx="1.5" transform="matrix(-0.707107 -0.707107 -0.707107 0.707107 25.0312 5.91431)" fill="black"/>
<defs>
<linearGradient id="paint0_linear_3474_4261" x1="13" y1="3" x2="13" y2="23.1272" gradientUnits="userSpaceOnUse">
<stop stop-color="#FF3F3F"/>
<stop offset="1" stop-color="#666666"/>
</linearGradient>
</defs>
</svg>
