<svg width="36" height="36" viewBox="0 0 36 36" fill="none" xmlns="http://www.w3.org/2000/svg">
<path d="M17.982 10.26V17.64M7.11 25.6335C7.395 29.22 10.236 32.2665 13.8975 32.718C15.2445 32.883 16.6125 33 18 33C19.3875 33 20.7555 32.883 22.1025 32.718C25.7625 32.2665 28.6035 29.22 28.8885 25.6335C29.0865 23.148 29.25 20.598 29.25 18C29.25 15.402 29.085 12.852 28.89 10.3665C28.605 6.78 25.764 3.7335 22.1025 3.282C20.7555 3.117 19.3875 3 18 3C16.6125 3 15.2445 3.117 13.8975 3.282C10.2375 3.732 7.395 6.78 7.1115 10.3665C6.9135 12.852 6.75 15.402 6.75 18C6.75 20.598 6.9135 23.148 7.11 25.6335Z" stroke="black" stroke-width="1.5" stroke-linecap="round" stroke-linejoin="round"/>
<path d="M15.0042 11.79C16.4772 10.26 17.3742 8.90999 18.0582 9.00599C18.6327 9.00149 19.1712 9.89999 21.0042 11.79M20.9922 16.713C19.5192 18.243 18.6222 19.593 17.9382 19.4955C17.3637 19.5 16.8252 18.603 14.9922 16.713" stroke="black" stroke-width="1.5" stroke-linecap="round" stroke-linejoin="round"/>
</svg>
